# xmcd CD database file
#
# Track frame offsets:
#	150
#	22794
#	42597
#	65128
#	84068
#	100817
#	121967
#	147349
#	168339
#	185801
#	208464
#	224726
#
# Disc length: 3342 seconds
#
# Revision: 1
# Processed by: cddbd v1.5.2PL0 Copyright (c) Steve Scherf et al.
# Submitted via: CDex 1.79
#
DISCID=b60d0c0c
DTITLE=Jedubaby - Blues vecnejch tulaku
DYEAR=1993
DGENRE=Blues
TTITLE0=Vize ciste bradavci
TTITLE1=Tezka tahla rana jsou
TTITLE2=Divenka v modrem snu
TTITLE3=Pro divku od Diora
TTITLE4=Toulava holka ulice
TTITLE5=Markyz de Sade
TTITLE6=Chodnikovy blues
TTITLE7=Alence z Liboce
TTITLE8=Holka z Varu
TTITLE9=Pritelkyni
TTITLE10=Blues vecnejch tulaku
TTITLE11=Tvy stehenni blues
EXTD=YEAR: 1993
EXTT0=
EXTT1=
EXTT2=
EXTT3=
EXTT4=
EXTT5=
EXTT6=
EXTT7=
EXTT8=
EXTT9=
EXTT10=
EXTT11=
PLAYORDER=
